<?xml version="1.0" encoding="UTF-8" standalone="no"?>
<!-- Created with Inkscape (http://www.inkscape.org/) -->

<svg
   width="239.92992mm"
   height="239.92992mm"
   viewBox="0 0 239.92992 239.92992"
   version="1.1"
   id="svg5"
   xml:space="preserve"
   inkscape:version="1.2.2 (732a01da63, 2022-12-09)"
   sodipodi:docname="buana-academy-2.svg"
   xmlns:inkscape="http://www.inkscape.org/namespaces/inkscape"
   xmlns:sodipodi="http://sodipodi.sourceforge.net/DTD/sodipodi-0.dtd"
   xmlns:xlink="http://www.w3.org/1999/xlink"
   xmlns="http://www.w3.org/2000/svg"
   xmlns:svg="http://www.w3.org/2000/svg"><sodipodi:namedview
     id="namedview7"
     pagecolor="#ffffff"
     bordercolor="#000000"
     borderopacity="0.25"
     inkscape:showpageshadow="2"
     inkscape:pageopacity="0.0"
     inkscape:pagecheckerboard="0"
     inkscape:deskcolor="#d1d1d1"
     inkscape:document-units="mm"
     showgrid="false"
     inkscape:zoom="0.88881858"
     inkscape:cx="452.84832"
     inkscape:cy="453.41087"
     inkscape:window-width="1920"
     inkscape:window-height="1009"
     inkscape:window-x="-8"
     inkscape:window-y="-8"
     inkscape:window-maximized="1"
     inkscape:current-layer="layer1" /><defs
     id="defs2"><linearGradient
       inkscape:collect="always"
       id="linearGradient4184"><stop
         style="stop-color:#fdfdfd;stop-opacity:1;"
         offset="0"
         id="stop4180" /><stop
         style="stop-color:#fdfdfd;stop-opacity:0;"
         offset="1"
         id="stop4182" /></linearGradient><linearGradient
       inkscape:collect="always"
       id="linearGradient4176"><stop
         style="stop-color:#ffffff;stop-opacity:1;"
         offset="0"
         id="stop4172" /><stop
         style="stop-color:#1a2237;stop-opacity:0;"
         offset="1"
         id="stop4174" /></linearGradient><linearGradient
       inkscape:collect="always"
       xlink:href="#linearGradient4176"
       id="linearGradient4178"
       x1="182.01796"
       y1="182.38066"
       x2="181.57581"
       y2="79.799362"
       gradientUnits="userSpaceOnUse" /><linearGradient
       inkscape:collect="always"
       xlink:href="#linearGradient4184"
       id="linearGradient4186"
       x1="210.92674"
       y1="161.07672"
       x2="292.49905"
       y2="119.02392"
       gradientUnits="userSpaceOnUse" /><linearGradient
       inkscape:collect="always"
       xlink:href="#linearGradient4176"
       id="linearGradient1648"
       gradientUnits="userSpaceOnUse"
       x1="182.01796"
       y1="182.38066"
       x2="181.57581"
       y2="79.799362" /><linearGradient
       inkscape:collect="always"
       xlink:href="#linearGradient4176"
       id="linearGradient1650"
       gradientUnits="userSpaceOnUse"
       x1="182.01796"
       y1="182.38066"
       x2="181.57581"
       y2="79.799362" /></defs><g
     inkscape:label="Layer 1"
     inkscape:groupmode="layer"
     id="layer1"
     transform="translate(215.95249,-308.01754)"><path
       id="rect345"
       style="display:none;fill:#00ffff;stroke-width:0.264583"
       d="m 183.07258,108.91187 -55.53098,27.22831 51.59013,27.22779 54.81423,-27.94454 z m -0.91933,10.74818 30.79141,16.04605 -33.17679,16.91369 -31.22548,-16.47961 z" /><path
       style="display:none;fill:#000000;stroke-width:0.264583"
       d="m -59.18545,-1.856271 c 0.07062,36.343827 0.192722,70.985391 0.271356,76.981252 l 0.143008,10.901568 6.849427,0.07864 6.849428,0.07864 1.016159,0.809088 c 0.558905,0.444997 1.284076,1.333428 1.611497,1.974291 0.592932,1.16055 0.595286,1.215435 0.589492,13.743002 -0.0053,11.63751 -0.04212,12.65691 -0.491781,13.63612 -0.267309,0.58208 -0.740939,1.28514 -1.052539,1.56236 -0.552238,0.49133 -0.566526,0.68203 -0.566526,7.56814 v 7.0641 l -0.648838,0.7001 -0.648811,0.70009 h -17.884034 -17.884035 l -0.649446,-0.64943 -0.64942,-0.64943 v -7.14647 c 0,-6.75371 -0.02768,-7.16127 -0.503396,-7.41588 -0.27686,-0.14817 -0.75311,-0.78526 -1.058333,-1.41576 -0.540385,-1.11627 -0.554779,-1.48256 -0.549117,-13.96125 0.0066,-14.595982 -0.02794,-14.340894 2.136167,-15.773967 l 1.125167,-0.745104 6.827388,-0.07864 6.827414,-0.07864 0.142849,-11.033858 c 0.07858,-6.068621 0.20066,-40.710185 0.27133,-76.9812517 l 0.128455,-65.9473943 h 0.6604 0.660426 V -2.3192918 63.297373 h 2.513542 2.513542 V -2.3192918 -67.935957 h 0.660426 0.6604 z m -6.851756,66.706463 c -0.07813,0.126447 -0.150284,4.918712 -0.160285,10.649478 l -0.01826,10.419578 3.055117,0.07454 3.055091,0.07454 V 75.520699 c 0,-5.801198 -0.07937,-10.627007 -0.176398,-10.724019 -0.262943,-0.262943 -5.590328,-0.213411 -5.755296,0.05351 z m -15.218649,23.007729 c -0.495829,0.265904 -1.121277,0.890982 -1.389935,1.389062 -0.458735,0.850501 -0.484135,1.68905 -0.417328,13.782907 l 0.07115,12.87731 0.661458,0.70772 c 1.408166,1.50666 0.678339,1.45124 19.102997,1.45079 18.785575,-5.3e-4 18.105358,0.0583 19.375067,-1.67264 0.536575,-0.73146 0.547979,-1.01596 0.547979,-13.67278 0,-12.656818 -0.01138,-12.941325 -0.547979,-13.672786 -1.27,-1.731301 -0.583195,-1.672183 -19.432191,-1.672638 -16.02703,-2.65e-4 -17.124813,0.02912 -17.971215,0.483055 z m 0.310013,38.013409 0.07054,6.61458 17.57799,0.068 c 13.887292,0.0538 17.622362,-0.002 17.789182,-0.26458 0.116152,-0.18295 0.213016,-3.19013 0.215238,-6.68263 l 0.004,-6.35 h -17.863767 -17.863794 l 0.07056,6.61458 z m 30.339453,-2.41242 c 0.204867,0.24683 0.283528,1.3398 0.233548,3.24441 -0.07009,2.67066 -0.112501,2.87218 -0.604546,2.87218 -0.492919,0 -0.534273,-0.20121 -0.603621,-2.93728 -0.05736,-2.26382 0.01032,-3.0077 0.295646,-3.24441 0.284612,-0.23622 0.441378,-0.2212 0.678973,0.0651 z m -25.175686,-0.17829 c 0.239289,0.0877 0.330729,0.99292 0.330729,3.27422 0,2.91716 -0.03746,3.15295 -0.500856,3.15295 -0.70866,0 -0.799783,-0.4191 -0.741442,-3.41075 0.05069,-2.59835 0.250296,-3.25889 0.911569,-3.01642 z m -2.098702,0.0474 c 0.241062,0.14899 0.310515,1.02498 0.255694,3.22601 -0.07019,2.82001 -0.110517,3.02148 -0.604388,3.02148 -0.492919,0 -0.534273,-0.20121 -0.60362,-2.93728 -0.07583,-2.9927 0.156924,-3.80179 0.952314,-3.31021 z m 29.559806,0.35884 c 0.07771,0.20249 0.107104,1.61028 0.06535,3.12841 -0.07038,2.55854 -0.114592,2.76024 -0.605103,2.76024 -0.498448,0 -0.529166,-0.17639 -0.529166,-3.03909 0,-2.686 0.0539,-3.04946 0.463814,-3.12841 0.255112,-0.0491 0.527394,0.0764 0.605102,0.27885 z M 249.45699,0.1413331 c 0,43.1081909 0.0906,66.0512329 0.26154,66.2221559 0.16135,0.161354 0.28803,4.362257 0.33072,10.966979 l 0.0692,10.705446 2.24896,0.14514 c 3.08997,0.199416 4.28012,0.884687 5.14928,2.9649 0.3543,0.847955 0.40641,3.585982 0.40262,21.156986 l -0.004,20.18297 -0.59936,1.05834 c -0.32964,0.58208 -0.97795,1.29645 -1.44066,1.5875 l -0.84131,0.52916 -0.0102,7.35069 c -0.0112,8.06006 -0.0696,8.42356 -1.582,9.84723 l -0.84324,0.79375 -6.79612,0.0722 c -6.41895,0.0682 -6.84398,0.0426 -7.65843,-0.4606 -0.47428,-0.29303 -1.09891,-0.92083 -1.38808,-1.3951 -0.49228,-0.8074 -0.52582,-1.34537 -0.52675,-8.44751 l -0.001,-7.58519 -0.91271,-0.56408 c -0.50199,-0.31025 -1.1866,-1.00456 -1.52135,-1.54293 l -0.6086,-0.97885 V 112.09367 91.436852 l 0.7451,-1.125926 c 1.04187,-1.574379 2.37624,-2.129544 5.13616,-2.13691 l 2.17711,-0.0058 0.14339,-11.046354 c 0.0789,-6.075494 0.19918,-40.692915 0.26737,-76.92760182 l 0.12398,-65.88124818 0.66683,-0.08396 0.66683,-0.08396 -0.007,65.30374528 c -0.004,35.91706272 -0.005,65.45257572 -0.002,65.63447672 0.003,0.241094 0.68537,0.33074 2.51761,0.33074 h 2.51355 V -0.20262522 -65.81929 h 0.66145 0.66146 z m -6.81602,77.3773939 -0.0692,10.649479 h 3.04571 3.04571 V 77.628971 c 0,-5.796582 -0.0832,-10.622399 -0.1848,-10.724044 -0.10165,-0.101645 -1.4411,-0.151254 -2.97657,-0.110244 l -2.79175,0.07456 z m -6.39683,12.455861 c -0.49581,0.265903 -1.12107,0.890981 -1.38946,1.389062 -0.46388,0.860851 -0.4845,1.899142 -0.41732,21.01393 0.0664,18.89561 0.0995,20.15084 0.54919,20.81314 1.00012,1.47309 1.48566,1.54419 10.54168,1.54374 9.31879,-5.3e-4 9.71921,-0.0704 10.60908,-1.85167 0.42818,-0.85712 0.46257,-2.41284 0.46203,-20.90208 -5.3e-4,-19.562523 -0.0116,-19.994157 -0.53396,-20.850904 -0.94755,-1.554154 -1.35508,-1.616869 -10.58126,-1.628328 -7.58244,-0.0094 -8.42025,0.03348 -9.23998,0.47311 z m 1.3066,53.511882 v 7.42869 l 0.7734,0.7734 0.7734,0.77339 h 6.36618 6.36618 l 0.86406,-0.77168 0.86407,-0.77168 0.0779,-7.4304 0.0779,-7.4304 h -8.08158 -8.08158 z m 13.71222,1.12118 c 0.49784,0.52993 0.57528,0.9162 0.57528,2.86941 0,3.35051 0.16744,3.2651 -6.40115,3.2651 -5.23739,0 -5.29204,-0.006 -5.79306,-0.62462 -0.75514,-0.93257 -0.72757,-4.44602 0.0426,-5.42511 l 0.54837,-0.69714 h 5.22635 c 5.12093,0 5.23794,0.0123 5.80163,0.61236 z m -10.61449,0.67853 c -0.11526,0.0176 -0.1748,0.95476 -0.13229,2.08255 l 0.0773,2.05052 4.87538,0.0723 c 3.72342,0.0552 4.92589,-0.007 5.08918,-0.26458 0.37045,-0.58371 0.25605,-3.30764 -0.15623,-3.71992 -0.30382,-0.30382 -1.27869,-0.36582 -4.96094,-0.31551 -2.52054,0.0344 -4.67711,0.077 -4.79237,0.0947 z m 8.755,2.21484 c -0.0433,0.9095 -0.19783,1.65364 -0.34335,1.65364 -0.14552,0 -0.30003,-0.74414 -0.34336,-1.65364 -0.0653,-1.3704 -0.006,-1.65365 0.34336,-1.65365 0.34982,0 0.40863,0.28325 0.34335,1.65365 z m -2.38125,0 c -0.0433,0.9095 -0.19783,1.65364 -0.34335,1.65364 -0.14552,0 -0.30003,-0.74414 -0.34336,-1.65364 -0.0653,-1.3704 -0.006,-1.65365 0.34336,-1.65365 0.34982,0 0.40863,0.28325 0.34335,1.65365 z m -2.32773,0.0661 c 0,0.97014 -0.11533,1.71979 -0.26458,1.71979 -0.14925,0 -0.26458,-0.74965 -0.26458,-1.71979 0,-0.97014 0.11533,-1.71979 0.26458,-1.71979 0.14925,0 0.26458,0.74965 0.26458,1.71979 z m -2.17018,-0.0661 c -0.0433,0.9095 -0.19784,1.65364 -0.34336,1.65364 -0.14552,0 -0.30003,-0.74414 -0.34335,-1.65364 -0.0653,-1.3704 -0.006,-1.65365 0.34335,-1.65365 0.34982,0 0.40863,0.28325 0.34336,1.65365 z M 177.35205,0.2603956 c 0.0706,36.3438274 0.19273,70.9840974 0.27137,76.9783784 l 0.14298,10.898695 5.24011,0.08151 c 5.16805,0.08039 5.25471,0.09119 6.3029,0.785508 0.58454,0.387197 1.28976,1.161103 1.56717,1.719792 0.48059,0.967917 0.50779,1.954961 0.577,20.939511 0.0494,13.56148 -0.0179,20.25999 -0.21095,20.9768 -0.17328,0.64352 -0.69014,1.43563 -1.32896,2.03671 l -1.04539,0.98361 -5.3e-4,12.12504 -3.4e-4,12.12504 -0.7734,0.7734 -0.7734,0.7734 h -14.00719 -14.00719 l -0.69754,-0.69754 -0.69753,-0.69754 v -12.21729 -12.21728 l -0.79161,-0.58526 c -0.43538,-0.32189 -1.03069,-1.05392 -1.32291,-1.62672 -0.51825,-1.01584 -0.53132,-1.5365 -0.53132,-21.16883 0,-21.47708 -0.018,-21.156108 1.26624,-22.575177 1.10402,-1.219923 1.80101,-1.365504 7.20043,-1.50395 l 5.15938,-0.132292 0.20475,-10.980208 c 0.11261,-6.039114 0.26191,-40.656535 0.33177,-76.92760207 L 169.55491,-65.81929 h 0.66041 0.66042 V -0.20262522 65.41404 h 2.51354 2.51354 V -0.20262522 -65.81929 h 0.66042 0.66042 z m -6.94233,77.2583314 -0.0691,10.649479 h 3.04571 3.04571 V 77.628971 c 0,-5.796582 -0.0832,-10.622399 -0.1848,-10.724044 -0.10165,-0.101645 -1.4411,-0.151254 -2.97657,-0.110244 l -2.79175,0.07456 z m -11.9694,12.435826 c -1.93441,0.966349 -1.85126,-0.02893 -1.85126,22.158447 0,18.36261 0.0345,19.91287 0.46261,20.76979 0.94122,1.88411 0.65169,1.85121 16.29763,1.85167 15.83685,5.3e-4 15.42495,0.05 16.33961,-1.96389 0.46242,-1.01813 0.49012,-2.17695 0.4956,-20.73426 0.006,-18.945492 -0.0127,-19.692257 -0.5081,-20.663212 -0.97759,-1.916239 -0.56952,-1.869249 -16.28713,-1.875541 -12.82777,-0.0051 -14.10184,0.03381 -14.94896,0.456996 z m 0.79375,57.824277 c 0,8.76359 0.0801,11.80115 0.3175,12.03854 0.45774,0.45773 27.21769,0.45773 27.67542,0 0.23739,-0.23739 0.3175,-3.27495 0.3175,-12.03854 v -11.72104 h -14.15521 -14.15521 z m 22.38058,-3.29205 c 1.028,0.19227 1.16734,0.55895 1.16734,3.07177 0,3.22232 -0.0993,3.3159 -3.51725,3.3159 -3.08858,0 -3.09733,-0.01 -3.09733,-3.38979 0,-1.7716 0.0989,-2.44832 0.39352,-2.69284 0.37063,-0.30759 3.90082,-0.52067 5.05372,-0.30504 z m -4.06977,3.14653 -0.0777,1.91823 h 1.99597 1.99596 v -1.80799 c 0,-0.99439 -0.0842,-1.89224 -0.18722,-1.99521 -0.10298,-0.10297 -0.96618,-0.15258 -1.91823,-0.11024 l -1.731,0.077 z m -8.14026,-2.96942 c 0.48629,0.24242 0.55328,0.55209 0.62113,2.87136 0.0494,1.68943 -0.0314,2.72912 -0.23083,2.96943 -0.45436,0.54747 -5.34149,0.52338 -5.79958,-0.0286 -0.36939,-0.44509 -0.3892,-5.40027 -0.0231,-5.7678 0.31878,-0.31997 4.80597,-0.35665 5.43234,-0.0444 z m -4.482,2.90327 v 1.85209 l 1.91823,0.0777 1.91822,0.0777 v -2.00756 -2.00756 l -1.91822,0.0777 -1.91823,0.0777 z M 101.41656,0.39268726 c 0.0706,36.41658774 0.19273,71.06377374 0.27146,76.99374774 l 0.14314,10.781771 h 4.8995 c 4.29562,0 5.02048,0.06205 5.88114,0.503417 1.18496,0.607685 2.03901,1.486839 2.41923,2.49037 0.39233,1.035473 0.39309,40.863727 8e-4,41.902007 -0.36772,0.97324 -1.43918,2.08137 -2.3955,2.4775 l -0.76267,0.3159 v 10.70092 c 0,10.93891 -0.0405,11.4152 -1.03541,12.17907 -0.31671,0.24316 -3.65534,0.32438 -13.594848,0.33073 l -13.175049,0.008 -0.64943,-0.64944 -0.649433,-0.64943 v -10.84301 -10.84301 l -1.03483,-0.58161 c -1.247103,-0.70091 -1.992583,-1.65562 -2.378708,-3.04633 -0.4006,-1.44284 -0.4006,-39.258584 0,-40.701431 0.402286,-1.448914 1.213665,-2.448255 2.489055,-3.065661 0.971494,-0.470291 1.634664,-0.528412 6.029327,-0.528412 H 92.81211 L 92.95512,77.253724 C 93.03378,71.250989 93.155905,36.603803 93.226517,0.2599756 L 93.3549,-65.81929 h 0.660422 0.660418 V -0.20262522 65.41404 h 2.513542 2.513542 V -0.20262522 -65.81929 h 0.792716 0.79271 z M 94.565089,66.897556 c -0.371962,0.142735 -0.418516,1.335638 -0.418516,10.72402 v 10.563423 l 3.108855,-0.07454 3.108852,-0.07454 0.0428,-10.054166 c 0.0235,-5.529792 -0.062,-10.322057 -0.18991,-10.649479 -0.218453,-0.558954 -0.385376,-0.595313 -2.73309,-0.595313 -1.375235,0 -2.688759,0.07227 -2.918941,0.1606 z M 82.35815,89.912596 c -0.575979,0.27332 -1.078304,0.814202 -1.429049,1.538742 -0.529648,1.094105 -0.540829,1.517383 -0.539385,20.414462 7.94e-4,11.89365 0.101778,19.65825 0.262909,20.23828 0.143788,0.51759 0.627121,1.2915 1.074073,1.71979 l 0.812641,0.77871 14.262868,0.0728 c 15.779283,0.0805 15.632353,0.0945 16.652173,-1.57822 0.52314,-0.85807 0.53399,-1.28227 0.53495,-20.93115 0.001,-22.134765 0.0795,-21.092468 -1.6655,-22.156421 -0.81211,-0.495176 -1.42927,-0.51652 -14.96227,-0.517467 -12.36625,-7.94e-4 -14.225276,0.05123 -15.00341,0.420484 z m 1.797434,56.926964 0.06911,10.78177 12.802095,0.0687 c 9.233031,0.0495 12.902721,-0.0148 13.163021,-0.23084 0.29381,-0.24383 0.36093,-2.26169 0.36093,-10.85047 V 136.05779 H 97.318605 84.086472 Z M 18.749688,-0.00418773 c 0.0081,56.55464373 0.0626,65.90817273 0.387509,66.47656073 0.30988,0.542078 0.37981,2.559584 0.387509,11.178646 l 0.0094,10.517187 5.225521,0.0058 c 4.51375,0.005 5.369677,0.07234 6.283854,0.494262 1.224394,0.565095 2.094609,1.434542 2.495918,2.493714 0.190934,0.50392 0.282207,7.288361 0.282207,20.976718 0,22.08703 0.05303,21.30743 -1.540515,22.64831 l -0.818719,0.6889 -0.07715,11.16198 -0.07715,11.16199 -0.742358,0.63832 -0.74236,0.63832 H 15.794795 1.7662957 l -0.77340356,-0.7734 -0.77340356,-0.7734 V 146.53526 135.5408 l -0.61139917,-0.40061 C -0.72819602,134.91985 -1.2639773,134.27582 -1.5825356,133.709 l -0.5792259,-1.03057 V 112.113 91.547546 l 0.5852319,-1.041283 c 1.1123613,-1.979198 1.79374277,-2.193783 7.280381,-2.292845 l 4.8229046,-0.08708 0.142981,-10.893128 c 0.07863,-5.99122 0.200739,-40.628987 0.271356,-76.9728144 L 11.069496,-65.81929 h 0.6604 0.660426 V -0.20262522 65.41404 h 2.513542 2.513542 V -0.20262522 -65.81929 h 0.661458 0.661458 l 0.0093,65.81510227 z M 11.924311,77.518727 11.855149,88.168206 h 3.045725 3.045698 V 77.628971 c 0,-5.796582 -0.08316,-10.622399 -0.184811,-10.724044 -0.101653,-0.101645 -1.441106,-0.151254 -2.976563,-0.110244 l -2.791751,0.07456 z M 0.06674462,90.611715 -0.83884477,91.600018 v 20.488792 20.48879 l 0.65611376,0.77974 c 0.36083876,0.42885 0.98821877,0.9173 1.39414251,1.08543 0.53467,0.22147 4.6500786,0.28561 14.9351205,0.23276 13.943116,-0.0717 14.210435,-0.0829 14.943871,-0.62762 0.410737,-0.30507 0.893868,-0.84085 1.073624,-1.19063 0.477485,-0.92911 0.473805,-40.562151 -0.0039,-41.506131 -0.181877,-0.359437 -0.737839,-0.927899 -1.235475,-1.263256 l -0.90479,-0.609738 -14.5238,0.07263 -14.52379938,0.07263 -0.90556294,0.988301 z m 14.22730738,46.698865 0.08064,1.25279 1.160886,-0.085 c 1.450843,-0.10626 1.607979,0.12516 1.613191,2.3757 0.0048,2.10655 -0.269557,2.43692 -1.818455,2.18925 L 14.2424,142.86935 v 0.94603 0.94603 l 1.389063,0.08 1.389063,0.08 v 2.11667 2.11666 l -1.322917,0.0229 -1.322917,0.0229 v 0.898 c 0,0.89723 0,0.89792 1.160886,0.81418 0.758481,-0.0548 1.238568,0.0387 1.385014,0.26977 0.336947,0.53158 0.278474,3.77339 -0.07445,4.1263 -0.192194,0.19219 -0.73541,0.2479 -1.455209,0.14924 l -1.14853,-0.15742 v 1.22659 1.22659 h 7.663604 c 7.306,0 7.676393,-0.0239 7.937505,-0.51178 0.175393,-0.32772 0.273892,-4.22892 0.273892,-10.84791 v -10.33615 h -7.952 -7.951999 z M 1.5424053,146.5882 c 0,7.83755 0.081201,10.61161 0.3175,10.84792 0.2265891,0.22659 1.8932525,0.3175 5.8208334,0.3175 h 5.5033333 v -1.5551 c 0,-1.89198 0.311653,-2.23241 1.822503,-1.99081 l 1.087914,0.17396 v -1.07832 -1.07832 l -1.389063,-0.08 -1.389062,-0.08 v -1.98438 -1.98437 l 1.40417,-0.0805 1.404197,-0.0805 -0.08128,-0.97784 c -0.07901,-0.95088 -0.110437,-0.97784 -1.139587,-0.97784 -0.582084,0 -1.207162,-0.0963 -1.389063,-0.21405 -0.424868,-0.27498 -0.444553,-3.40276 -0.02408,-3.82324 0.192194,-0.19219 0.73541,-0.2479 1.455209,-0.14925 l 1.148529,0.15743 v -1.08047 -1.08047 l -1.389062,-0.08 -1.389063,-0.08 -0.07824,-1.78593 -0.07824,-1.78594 H 7.3511208 1.5423788 v 10.53041 z"
       id="path899" /><g
       id="g3361"
       transform="translate(-284.23645,270.55663)"
       inkscape:export-filename="buana-academy.png"
       inkscape:export-xdpi="108.40499"
       inkscape:export-ydpi="108.40499"><rect
         style="fill:#1a2237;fill-opacity:1;stroke-width:1.19965"
         id="rect3341"
         width="239.92992"
         height="239.92992"
         x="68.283958"
         y="37.460915"
         inkscape:export-filename="buana-academy-2.png"
         inkscape:export-xdpi="108.40499"
         inkscape:export-ydpi="108.40499" /><g
         id="g3372"
         transform="translate(6.4305476,-1.4787202)"><text
           xml:space="preserve"
           style="font-style:normal;font-variant:normal;font-weight:bold;font-stretch:normal;font-size:97.4413px;font-family:Gadugi;-inkscape-font-specification:'Gadugi Bold';fill:#fdfdfd;fill-opacity:1;stroke-width:1.04402"
           x="153.81967"
           y="177.543"
           id="text3345"><tspan
             sodipodi:role="line"
             id="tspan3343"
             style="font-style:normal;font-variant:normal;font-weight:bold;font-stretch:normal;font-size:97.4413px;font-family:Gadugi;-inkscape-font-specification:'Gadugi Bold';fill:#fdfdfd;fill-opacity:1;stroke-width:1.04402"
             x="153.81967"
             y="177.543">B</tspan></text><g
           id="g3355"
           transform="matrix(1.1458736,0,0,1.1458736,-26.522484,-20.042138)"
           style="fill:url(#linearGradient4178);fill-opacity:1"><path
             id="path3351"
             style="fill:url(#linearGradient1648);fill-opacity:1;stroke-width:0.264583"
             d="m 181.63956,110.3452 -52.30689,26.15293 h 15.81609 l 36.54299,-18.27124 37.31865,17.77049 -0.91519,0.50075 h 14.24513 l 1.9637,-1.07487 z" /><path
             id="path3353"
             style="display:inline;fill:url(#linearGradient1650);fill-opacity:1;stroke-width:0.264583"
             d="m 181.63956,110.3452 -52.30689,26.15293 51.94825,27.94455 53.02312,-29.01942 z m 0.0522,7.88169 37.31865,17.77049 -37.5729,20.56361 -36.81067,-19.8019 z" /></g><path
           id="path3357"
           style="font-style:normal;font-variant:normal;font-weight:bold;font-stretch:normal;font-size:97.4413px;font-family:Gadugi;-inkscape-font-specification:'Gadugi Bold';fill:#fdfdfd;fill-opacity:1;stroke-width:1.04402"
           d="m 161.62269,109.31529 v 28.07013 h 42.13283 c 0.95299,-0.72003 1.83342,-1.5271 2.6386,-2.42518 2.50581,-2.75956 3.75894,-5.97942 3.75894,-9.65884 0,-5.07506 -2.04584,-9.008 -6.13761,-11.79928 -4.09177,-2.79129 -9.94395,-4.18683 -17.55655,-4.18683 z m 15.36806,11.32334 h 5.75675 c 7.48572,0 11.22877,2.50575 11.22877,7.51738 0,2.69612 -0.91981,4.8216 -2.75952,6.37583 -1.80799,1.52252 -4.29791,2.28358 -7.46983,2.28358 h -6.75617 z" /><path
           style="fill:url(#linearGradient4186);fill-opacity:1;stroke-width:0.0659608"
           d="m 232.95098,140.07286 c 0.0176,9.07868 0.048,15.59957 0.0677,17.07792 l 0.0357,2.6879 h 1.22145 c 1.0709,0 1.25161,0.0155 1.46617,0.12551 0.29541,0.15149 0.50833,0.37067 0.60312,0.62085 0.0978,0.25814 0.098,10.18736 2e-4,10.4462 -0.0917,0.24263 -0.35879,0.51889 -0.5972,0.61764 l -0.19014,0.0787 v 2.66775 c 0,2.72708 -0.0101,2.84582 -0.25813,3.03625 -0.0789,0.0606 -0.91128,0.0809 -3.3892,0.0824 l -3.28455,0.002 -0.1619,-0.16191 -0.16191,-0.1619 v -2.70317 -2.70317 l -0.25798,-0.14499 c -0.3109,-0.17474 -0.49675,-0.41275 -0.59302,-0.75946 -0.0999,-0.3597 -0.0999,-9.78719 0,-10.14689 0.1003,-0.36122 0.30258,-0.61036 0.62053,-0.76428 0.24219,-0.11724 0.40752,-0.13173 1.50312,-0.13173 h 1.23099 l 0.0356,-2.72088 c 0.0196,-1.49649 0.10337,-16.09698 0.0677,-16.0196 l 0.032,-0.0694 h 0.16464 0.16464 v -0.0459 13.18328 h 0.62663 0.62663 v -14.24151 0.0459 h 0.19762 0.19762 z m -1.70807,14.46304 c -0.0927,0.0356 -0.10434,0.33297 -0.10434,2.6735 v 2.63347 l 0.77504,-0.0186 0.77504,-0.0186 0.0107,-2.50652 c 0.006,-1.37858 -0.0154,-2.57329 -0.0473,-2.65492 -0.0545,-0.13935 -0.0961,-0.14841 -0.68137,-0.14841 -0.34284,0 -0.6703,0.018 -0.72769,0.04 z m -3.0432,5.73766 c -0.14359,0.0681 -0.26882,0.20299 -0.35626,0.38361 -0.13204,0.27276 -0.13483,0.37829 -0.13447,5.08934 2e-4,2.9651 0.0253,4.90082 0.0656,5.04542 0.0358,0.12904 0.15633,0.32197 0.26776,0.42875 l 0.20259,0.19413 3.55574,0.0182 c 3.93379,0.0201 3.89716,0.0236 4.1514,-0.39345 0.13042,-0.21392 0.13312,-0.31967 0.13337,-5.21815 2.4e-4,-5.51822 0.0198,-5.25837 -0.41522,-5.52361 -0.20246,-0.12345 -0.35631,-0.12878 -3.7301,-0.12901 -3.08291,-2e-4 -3.54637,0.0127 -3.74036,0.10483 z m 0.4481,14.19194 0.0172,2.6879 3.19157,0.0171 c 2.3018,0.0123 3.21666,-0.004 3.28155,-0.0575 0.0733,-0.0608 0.09,-0.56384 0.09,-2.70503 v -2.63035 h -3.29878 -3.29878 z"
           id="path3359"
           sodipodi:nodetypes="cscssssscssccccccssssscscccccccccccccsscccccssssscssccscscsscccsscccc" /></g><text
         xml:space="preserve"
         style="font-style:normal;font-variant:normal;font-weight:bold;font-stretch:normal;font-size:24.6944px;font-family:Gadugi;-inkscape-font-specification:'Gadugi Bold';letter-spacing:10.5833px;fill:#ffffff;stroke-width:0.264583"
         x="96.372734"
         y="207.34045"
         id="text3349"><tspan
           sodipodi:role="line"
           id="tspan3347"
           style="font-style:normal;font-variant:normal;font-weight:bold;font-stretch:normal;font-family:Gadugi;-inkscape-font-specification:'Gadugi Bold';stroke-width:0.264583"
           x="96.372734"
           y="207.34045">ACADEMY</tspan></text></g></g></svg>
