<?xml version="1.0" encoding="UTF-8" standalone="no"?>
<svg
   width="200"
   height="200"
   viewBox="0 0 200 200"
   version="1.1"
   id="svg34"
   sodipodi:docname="logo.svg"
   inkscape:version="1.2.2 (732a01da63, 2022-12-09)"
   xmlns:inkscape="http://www.inkscape.org/namespaces/inkscape"
   xmlns:sodipodi="http://sodipodi.sourceforge.net/DTD/sodipodi-0.dtd"
   xmlns:xlink="http://www.w3.org/1999/xlink"
   xmlns="http://www.w3.org/2000/svg"
   xmlns:svg="http://www.w3.org/2000/svg">
  <defs
     id="defs38">
    <linearGradient
       inkscape:collect="always"
       id="linearGradient1755">
      <stop
         style="stop-color:#ff0000;stop-opacity:1;"
         offset="0"
         id="stop1751" />
      <stop
         style="stop-color:#ffdd55;stop-opacity:1"
         offset="1"
         id="stop1753" />
    </linearGradient>
    <linearGradient
       inkscape:collect="always"
       id="linearGradient1681">
      <stop
         style="stop-color:#ff0000;stop-opacity:1;"
         offset="0"
         id="stop1677" />
      <stop
         style="stop-color:#ffdd55;stop-opacity:1"
         offset="1"
         id="stop1679" />
    </linearGradient>
    <linearGradient
       inkscape:collect="always"
       xlink:href="#linearGradient4176"
       id="linearGradient4178"
       x1="182.01796"
       y1="182.38066"
       x2="181.57581"
       y2="79.799362"
       gradientUnits="userSpaceOnUse" />
    <linearGradient
       inkscape:collect="always"
       id="linearGradient4176">
      <stop
         style="stop-color:#ffffff;stop-opacity:1;"
         offset="0"
         id="stop4172" />
      <stop
         style="stop-color:#1a2237;stop-opacity:0;"
         offset="1"
         id="stop4174" />
    </linearGradient>
    <linearGradient
       inkscape:collect="always"
       xlink:href="#linearGradient4184"
       id="linearGradient4186"
       x1="210.92674"
       y1="161.07672"
       x2="292.49905"
       y2="119.02392"
       gradientUnits="userSpaceOnUse" />
    <linearGradient
       inkscape:collect="always"
       id="linearGradient4184">
      <stop
         style="stop-color:#fdfdfd;stop-opacity:1;"
         offset="0"
         id="stop4180" />
      <stop
         style="stop-color:#fdfdfd;stop-opacity:0;"
         offset="1"
         id="stop4182" />
    </linearGradient>
    <linearGradient
       inkscape:collect="always"
       xlink:href="#linearGradient4176"
       id="linearGradient4477"
       gradientUnits="userSpaceOnUse"
       x1="182.01796"
       y1="182.38066"
       x2="181.57581"
       y2="79.799362" />
    <linearGradient
       inkscape:collect="always"
       xlink:href="#linearGradient4176"
       id="linearGradient4479"
       gradientUnits="userSpaceOnUse"
       x1="182.01796"
       y1="182.38066"
       x2="181.57581"
       y2="79.799362" />
    <linearGradient
       inkscape:collect="always"
       xlink:href="#linearGradient1681"
       id="linearGradient1683"
       x1="108.87672"
       y1="247.3764"
       x2="201.68549"
       y2="85.709526"
       gradientUnits="userSpaceOnUse" />
    <linearGradient
       inkscape:collect="always"
       xlink:href="#linearGradient1755"
       id="linearGradient1685"
       x1="108.87672"
       y1="247.3764"
       x2="201.68549"
       y2="85.709526"
       gradientUnits="userSpaceOnUse" />
  </defs>
  <sodipodi:namedview
     id="namedview36"
     pagecolor="#ffffff"
     bordercolor="#000000"
     borderopacity="0.25"
     inkscape:showpageshadow="2"
     inkscape:pageopacity="0.0"
     inkscape:pagecheckerboard="0"
     inkscape:deskcolor="#d1d1d1"
     showgrid="false"
     inkscape:zoom="1.4654788"
     inkscape:cx="19.447569"
     inkscape:cy="100.30851"
     inkscape:window-width="1920"
     inkscape:window-height="1009"
     inkscape:window-x="-8"
     inkscape:window-y="-8"
     inkscape:window-maximized="1"
     inkscape:current-layer="svg34" />
  <g
     id="g3372"
     transform="matrix(1.5954794,0,0,1.5954794,-190.08746,-126.51222)">
    <text
       xml:space="preserve"
       style="font-style:normal;font-variant:normal;font-weight:bold;font-stretch:normal;font-size:97.4413px;font-family:Gadugi;-inkscape-font-specification:'Gadugi Bold';fill:url(#linearGradient1685);fill-opacity:1;stroke-width:1.04402"
       x="153.81967"
       y="177.543"
       id="text3345"><tspan
         sodipodi:role="line"
         id="tspan3343"
         style="font-style:normal;font-variant:normal;font-weight:bold;font-stretch:normal;font-size:97.4413px;font-family:Gadugi;-inkscape-font-specification:'Gadugi Bold';fill:url(#linearGradient1685);fill-opacity:1;stroke-width:1.04402"
         x="153.81967"
         y="177.543">B</tspan></text>
    <g
       id="g3355"
       transform="matrix(1.1458736,0,0,1.1458736,-26.522484,-20.042138)"
       style="fill:url(#linearGradient4178);fill-opacity:1">
      <path
         id="path3351"
         style="fill:url(#linearGradient4477);fill-opacity:1;stroke-width:0.264583"
         d="m 181.63956,110.3452 -52.30689,26.15293 h 15.81609 l 36.54299,-18.27124 37.31865,17.77049 -0.91519,0.50075 h 14.24513 l 1.9637,-1.07487 z" />
      <path
         id="path3353"
         style="display:inline;fill:url(#linearGradient4479);fill-opacity:1;stroke-width:0.264583"
         d="m 181.63956,110.3452 -52.30689,26.15293 51.94825,27.94455 53.02312,-29.01942 z m 0.0522,7.88169 37.31865,17.77049 -37.5729,20.56361 -36.81067,-19.8019 z" />
    </g>
    <path
       id="path3357"
       style="font-style:normal;font-variant:normal;font-weight:bold;font-stretch:normal;font-size:97.4413px;font-family:Gadugi;-inkscape-font-specification:'Gadugi Bold';fill:url(#linearGradient1683);fill-opacity:1;stroke-width:1.04402"
       d="m 161.62269,109.31529 v 28.07013 h 42.13283 c 0.95299,-0.72003 1.83342,-1.5271 2.6386,-2.42518 2.50581,-2.75956 3.75894,-5.97942 3.75894,-9.65884 0,-5.07506 -2.04584,-9.008 -6.13761,-11.79928 -4.09177,-2.79129 -9.94395,-4.18683 -17.55655,-4.18683 z m 15.36806,11.32334 h 5.75675 c 7.48572,0 11.22877,2.50575 11.22877,7.51738 0,2.69612 -0.91981,4.8216 -2.75952,6.37583 -1.80799,1.52252 -4.29791,2.28358 -7.46983,2.28358 h -6.75617 z" />
    <path
       style="fill:url(#linearGradient4186);fill-opacity:1;stroke-width:0.0659608"
       d="m 232.95098,140.07286 c 0.0176,9.07868 0.048,15.59957 0.0677,17.07792 l 0.0357,2.6879 h 1.22145 c 1.0709,0 1.25161,0.0155 1.46617,0.12551 0.29541,0.15149 0.50833,0.37067 0.60312,0.62085 0.0978,0.25814 0.098,10.18736 2e-4,10.4462 -0.0917,0.24263 -0.35879,0.51889 -0.5972,0.61764 l -0.19014,0.0787 v 2.66775 c 0,2.72708 -0.0101,2.84582 -0.25813,3.03625 -0.0789,0.0606 -0.91128,0.0809 -3.3892,0.0824 l -3.28455,0.002 -0.1619,-0.16191 -0.16191,-0.1619 v -2.70317 -2.70317 l -0.25798,-0.14499 c -0.3109,-0.17474 -0.49675,-0.41275 -0.59302,-0.75946 -0.0999,-0.3597 -0.0999,-9.78719 0,-10.14689 0.1003,-0.36122 0.30258,-0.61036 0.62053,-0.76428 0.24219,-0.11724 0.40752,-0.13173 1.50312,-0.13173 h 1.23099 l 0.0356,-2.72088 c 0.0196,-1.49649 0.10337,-16.09698 0.0677,-16.0196 l 0.032,-0.0694 h 0.16464 0.16464 v -0.0459 13.18328 h 0.62663 0.62663 v -14.24151 0.0459 h 0.19762 0.19762 z m -1.70807,14.46304 c -0.0927,0.0356 -0.10434,0.33297 -0.10434,2.6735 v 2.63347 l 0.77504,-0.0186 0.77504,-0.0186 0.0107,-2.50652 c 0.006,-1.37858 -0.0154,-2.57329 -0.0473,-2.65492 -0.0545,-0.13935 -0.0961,-0.14841 -0.68137,-0.14841 -0.34284,0 -0.6703,0.018 -0.72769,0.04 z m -3.0432,5.73766 c -0.14359,0.0681 -0.26882,0.20299 -0.35626,0.38361 -0.13204,0.27276 -0.13483,0.37829 -0.13447,5.08934 2e-4,2.9651 0.0253,4.90082 0.0656,5.04542 0.0358,0.12904 0.15633,0.32197 0.26776,0.42875 l 0.20259,0.19413 3.55574,0.0182 c 3.93379,0.0201 3.89716,0.0236 4.1514,-0.39345 0.13042,-0.21392 0.13312,-0.31967 0.13337,-5.21815 2.4e-4,-5.51822 0.0198,-5.25837 -0.41522,-5.52361 -0.20246,-0.12345 -0.35631,-0.12878 -3.7301,-0.12901 -3.08291,-2e-4 -3.54637,0.0127 -3.74036,0.10483 z m 0.4481,14.19194 0.0172,2.6879 3.19157,0.0171 c 2.3018,0.0123 3.21666,-0.004 3.28155,-0.0575 0.0733,-0.0608 0.09,-0.56384 0.09,-2.70503 v -2.63035 h -3.29878 -3.29878 z"
       id="path3359"
       sodipodi:nodetypes="cscssssscssccccccssssscscccccccccccccsscccccssssscssccscscsscccsscccc" />
  </g>
</svg>
